# xmcd
#
# Track frame offsets: 
#        150
#        13530
#        23027
#        33042
#        40612
#        55425
#        76197
#        84685
#        96007
#        108322
#        116967
#        126522
#        141410
#        150155
#        160852
#        169637
#        179952
#        192707
#        204525
#        213607
#        226822
#        240115
#        251562
#        262137
#        272832
#        282710
#
# Disc length: 3913 seconds
#
# Revision: 1
# Processed by: cddbd v1.5.2PL0 Copyright (c) Steve Scherf et al.
# Submitted via: ExactAudioCopy v1.3
#
DISCID=740f471a
DTITLE=Leon McAuliffe and his Cimarron Boys - Take Off, And More (Dot)
DYEAR=2007
DGENRE=Country
TTITLE0=Take It Away, Leon
TTITLE1=Steel Guitar Polka
TTITLE2=My Love
TTITLE3=Lone Star Rag
TTITLE4=South Rampart Street Parade
TTITLE5=Honky Tonk
TTITLE6=Silver Bells
TTITLE7=Sweetheart
TTITLE8=Summit Ridge Drive
TTITLE9=Twinkle, Twinkle Little Star
TTITLE10=Along The Navajo Trail
TTITLE11=One O'Clock Jump
TTITLE12=Hear Me Now
TTITLE13=Maiden's Prayer
TTITLE14=What's The Use
TTITLE15=Under The Double Eagle
TTITLE16=Steel Guitar Rag
TTITLE17=Carroll County Blues
TTITLE18=Blue Man's Blues
TTITLE19=Panhandle Waltz
TTITLE20=Panhandle Rag
TTITLE21=Cimarron Rag
TTITLE22=Red Skin Rag
TTITLE23=Little Girl Ask Your Mama
TTITLE24=Johnny Cake Road
TTITLE25=There's That Smile Again
EXTD=YEAR: 2007
EXTT0=
EXTT1=
EXTT2=
EXTT3=
EXTT4=
EXTT5=
EXTT6=
EXTT7=
EXTT8=
EXTT9=
EXTT10=
EXTT11=
EXTT12=
EXTT13=
EXTT14=
EXTT15=
EXTT16=
EXTT17=
EXTT18=
EXTT19=
EXTT20=
EXTT21=
EXTT22=
EXTT23=
EXTT24=
EXTT25=
PLAYORDER=
